<?xml version="1.0" encoding="utf-8"?>
<svg viewBox="0 0 399.6093444824219 393.6722412109375" width="399.6093444824219" height="393.6722412109375" xmlns="http://www.w3.org/2000/svg">
  <g id="svgg" transform="matrix(1, 0, 0, 1, 0, 0)">
    <path id="path0" d="M0.000 196.464 L 0.000 392.927 200.000 392.927 L 400.000 392.927 400.000 196.464 L 400.000 0.000 200.000 0.000 L 0.000 0.000 0.000 196.464 M364.637 17.861 C 373.199 22.112,377.371 27.071,380.263 36.435 C 381.862 41.610,381.890 43.160,382.050 133.813 C 382.447 358.493,382.494 350.394,380.767 355.206 C 376.681 366.592,369.131 373.093,357.403 375.328 C 349.359 376.861,52.893 376.832,45.972 375.298 C 33.333 372.496,25.161 364.483,22.279 352.065 C 20.912 346.177,20.878 340.461,21.139 159.921 C 21.318 36.173,21.209 39.508,25.380 30.648 C 27.285 26.601,33.069 20.548,36.542 18.965 C 37.839 18.375,39.590 17.532,40.433 17.092 C 43.886 15.291,56.196 15.152,204.715 15.236 L 359.528 15.324 364.637 17.861 M152.339 98.402 C 150.354 99.063,142.812 112.927,138.322 124.165 C 137.373 126.542,136.153 129.371,135.613 130.452 C 135.072 131.532,133.832 134.715,132.857 137.525 C 131.882 140.334,130.775 143.340,130.396 144.204 C 129.178 146.989,117.186 182.892,115.172 189.784 C 114.541 191.945,113.300 196.160,112.415 199.150 C 111.530 202.140,110.806 205.099,110.806 205.724 C 110.806 206.350,110.305 208.501,109.693 210.504 C 109.081 212.507,107.828 216.621,106.910 219.646 C 105.991 222.672,104.393 229.921,103.358 235.756 C 101.340 247.139,98.794 259.966,97.040 267.583 C 96.444 270.177,95.718 274.831,95.427 277.927 L 94.899 283.555 97.432 284.865 C 98.825 285.585,101.431 286.642,103.224 287.212 C 105.017 287.783,110.020 289.532,114.342 291.099 C 125.015 294.968,124.647 295.164,130.121 282.722 C 132.643 276.989,135.891 270.260,137.339 267.768 C 138.787 265.276,141.148 260.325,142.587 256.766 C 145.393 249.822,157.186 226.404,160.599 220.996 C 161.739 219.190,162.672 217.546,162.672 217.341 C 162.672 217.136,165.645 211.896,169.278 205.695 C 175.062 195.824,177.750 191.620,184.982 181.139 C 192.707 169.944,203.486 159.790,213.604 154.176 C 226.891 146.804,240.672 150.203,245.811 162.119 C 248.895 169.273,244.264 184.584,230.310 213.360 C 213.729 247.555,210.734 260.958,216.823 273.718 C 231.180 303.799,273.532 294.013,302.342 253.958 C 305.034 250.214,307.245 246.753,307.253 246.265 C 307.262 245.778,307.800 244.939,308.448 244.401 C 310.244 242.911,309.922 238.725,307.873 236.913 C 299.988 229.943,298.882 230.033,290.150 238.350 C 273.381 254.321,267.166 256.892,259.673 250.957 C 251.935 244.829,251.444 236.757,257.934 222.397 C 258.814 220.452,259.978 217.604,260.522 216.068 C 261.066 214.533,262.789 210.554,264.351 207.227 C 265.913 203.901,268.478 198.438,270.052 195.088 C 295.719 140.467,296.097 123.052,271.906 109.693 C 266.891 106.924,256.032 107.046,244.008 110.007 C 234.340 112.388,220.330 119.863,210.584 127.839 C 199.220 137.139,193.472 142.935,181.532 157.132 C 179.587 159.444,177.024 162.433,175.835 163.772 C 174.646 165.112,172.701 167.623,171.513 169.352 C 170.324 171.081,167.354 175.219,164.912 178.547 C 162.470 181.876,158.089 188.242,155.177 192.693 C 146.539 205.897,145.985 206.680,145.276 206.680 C 144.347 206.680,144.420 202.533,145.394 199.971 C 145.832 198.819,146.686 195.701,147.291 193.044 C 149.104 185.078,150.030 181.346,151.216 177.210 C 151.836 175.049,153.046 170.806,153.905 167.780 C 158.650 151.076,167.801 121.825,169.431 118.152 C 170.036 116.790,170.530 115.001,170.530 114.177 C 170.530 113.352,171.050 111.991,171.684 111.152 C 174.928 106.863,172.509 102.014,166.560 100.883 C 165.070 100.600,163.143 99.999,162.279 99.548 C 159.849 98.280,154.540 97.668,152.339 98.402 " stroke="none" fill="#ffffff" fill-rule="evenodd"/>
    <path id="path1" d="M45.934 15.721 C 43.751 16.035,41.276 16.653,40.433 17.092 C 39.590 17.532,37.839 18.375,36.542 18.965 C 33.069 20.548,27.285 26.601,25.380 30.648 C 21.209 39.508,21.318 36.173,21.139 159.921 C 20.878 340.461,20.912 346.177,22.279 352.065 C 25.161 364.483,33.333 372.496,45.972 375.298 C 52.893 376.832,349.359 376.861,357.403 375.328 C 369.131 373.093,376.681 366.592,380.767 355.206 C 382.494 350.394,382.447 358.493,382.050 133.813 C 381.890 43.160,381.862 41.610,380.263 36.435 C 377.371 27.071,373.199 22.112,364.637 17.861 L 359.528 15.324 204.715 15.236 C 119.568 15.188,48.116 15.406,45.934 15.721 M162.279 99.548 C 163.143 99.999,165.070 100.600,166.560 100.883 C 172.509 102.014,174.928 106.863,171.684 111.152 C 171.050 111.991,170.530 113.352,170.530 114.177 C 170.530 115.001,170.036 116.790,169.431 118.152 C 167.801 121.825,158.650 151.076,153.905 167.780 C 153.046 170.806,151.836 175.049,151.216 177.210 C 150.030 181.346,149.104 185.078,147.291 193.044 C 146.686 195.701,145.832 198.819,145.394 199.971 C 144.420 202.533,144.347 206.680,145.276 206.680 C 145.985 206.680,146.539 205.897,155.177 192.693 C 158.089 188.242,162.470 181.876,164.912 178.547 C 167.354 175.219,170.324 171.081,171.513 169.352 C 172.701 167.623,174.646 165.112,175.835 163.772 C 177.024 162.433,179.587 159.444,181.532 157.132 C 193.472 142.935,199.220 137.139,210.584 127.839 C 220.330 119.863,234.340 112.388,244.008 110.007 C 256.032 107.046,266.891 106.924,271.906 109.693 C 296.097 123.052,295.719 140.467,270.052 195.088 C 268.478 198.438,265.913 203.901,264.351 207.227 C 262.789 210.554,261.066 214.533,260.522 216.068 C 259.978 217.604,258.814 220.452,257.934 222.397 C 251.444 236.757,251.935 244.829,259.673 250.957 C 267.166 256.892,273.381 254.321,290.150 238.350 C 298.882 230.033,299.988 229.943,307.873 236.913 C 309.922 238.725,310.244 242.911,308.448 244.401 C 307.800 244.939,307.262 245.778,307.253 246.265 C 307.230 247.584,298.128 259.998,292.731 266.071 C 280.430 279.916,259.094 291.469,245.187 291.817 C 234.913 292.074,221.499 283.515,216.823 273.718 C 210.734 260.958,213.729 247.555,230.310 213.360 C 249.957 172.844,251.294 159.538,236.476 152.029 C 223.288 145.347,200.977 157.960,184.982 181.139 C 177.750 191.620,175.062 195.824,169.278 205.695 C 165.645 211.896,162.672 217.136,162.672 217.341 C 162.672 217.546,161.739 219.190,160.599 220.996 C 157.186 226.404,145.393 249.822,142.587 256.766 C 141.148 260.325,138.787 265.276,137.339 267.768 C 135.891 270.260,132.643 276.989,130.121 282.722 C 124.647 295.164,125.015 294.968,114.342 291.099 C 110.020 289.532,105.017 287.783,103.224 287.212 C 101.431 286.642,98.825 285.585,97.432 284.865 L 94.899 283.555 95.427 277.927 C 95.718 274.831,96.444 270.177,97.040 267.583 C 98.794 259.966,101.340 247.139,103.358 235.756 C 104.393 229.921,105.991 222.672,106.910 219.646 C 107.828 216.621,109.081 212.507,109.693 210.504 C 110.305 208.501,110.806 206.350,110.806 205.724 C 110.806 205.099,111.530 202.140,112.415 199.150 C 113.300 196.160,114.541 191.945,115.172 189.784 C 117.186 182.892,129.178 146.989,130.396 144.204 C 130.775 143.340,131.882 140.334,132.857 137.525 C 133.832 134.715,135.072 131.532,135.613 130.452 C 136.153 129.371,137.373 126.542,138.322 124.165 C 142.812 112.927,150.354 99.063,152.339 98.402 C 154.540 97.668,159.849 98.280,162.279 99.548 " stroke="none" fill="#cf2340" fill-rule="evenodd"/>
  </g>
</svg>